<?xml version="1.0" encoding="utf-8"?>
<!-- Generator: Adobe Illustrator 23.0.1, SVG Export Plug-In . SVG Version: 6.00 Build 0)  -->
<svg version="1.1" id="Layer_1" xmlns="http://www.w3.org/2000/svg" xmlns:xlink="http://www.w3.org/1999/xlink" x="0px" y="0px"
	 viewBox="0 0 421.3 841.9" style="enable-background:new 0 0 421.3 841.9;" xml:space="preserve">
<style type="text/css">
	.st0{fill:#333333;}
</style>
<path class="st0" d="M210.6,20C99.9,20,10.1,109.8,10.1,220.5c0,23.4,4,45.9,11.4,66.8l0,0c63,178.2,126,356.4,189,534.6
	c63-178.2,126-356.4,189-534.6l0.1,0.1C407,266.5,411,244,411,220.5C411.1,109.8,321.4,20,210.6,20z M210.6,301.1
	c-44.5,0-80.6-36.1-80.6-80.6s36.1-80.6,80.6-80.6s80.6,36.1,80.6,80.6S255.1,301.1,210.6,301.1z"/>
</svg>
